<?xml version="1.0" standalone="no"?>
<!DOCTYPE svg PUBLIC "-//W3C//DTD SVG 20010904//EN"
 "http://www.w3.org/TR/2001/REC-SVG-20010904/DTD/svg10.dtd">
<svg version="1.0" xmlns="http://www.w3.org/2000/svg"
 width="408.000000pt" height="612.000000pt" viewBox="0 0 408.000000 612.000000"
 preserveAspectRatio="xMidYMid meet">

<g transform="translate(0.000000,612.000000) scale(0.100000,-0.100000)"
fill="#000000" stroke="none">
<path d="M1587 4923 c-4 -3 -7 -46 -7 -94 l0 -87 -52 28 c-69 37 -167 65 -180
52 -7 -7 0 -32 21 -75 43 -89 42 -97 -11 -85 -53 12 -164 6 -179 -9 -9 -9 -1
-24 29 -60 55 -66 68 -93 51 -104 -8 -5 -24 -9 -37 -9 -32 0 -71 -22 -111 -64
-28 -29 -35 -45 -39 -89 -3 -39 1 -65 13 -91 l18 -37 -31 -42 c-30 -42 -31
-42 -116 -53 -48 -6 -91 -15 -97 -21 -7 -7 -9 -28 -5 -55 3 -23 6 -74 6 -113
-1 -39 6 -89 14 -114 9 -24 16 -47 16 -52 0 -5 -28 -9 -62 -9 -108 0 -163 -51
-140 -129 12 -37 70 -91 100 -91 6 0 20 -17 31 -39 26 -49 109 -140 169 -185
57 -41 171 -99 231 -117 l43 -13 -7 -80 c-3 -45 -10 -85 -15 -90 -14 -14 -96
3 -132 27 -26 18 -36 35 -48 82 -21 79 -34 101 -65 109 -61 15 -114 -52 -99
-128 l6 -36 -51 0 c-68 0 -118 -22 -132 -56 -13 -35 3 -76 36 -94 12 -7 25
-25 29 -40 3 -16 16 -39 29 -52 14 -13 27 -35 31 -50 6 -27 49 -58 78 -58 7 0
29 8 47 18 l35 19 62 -31 c34 -17 63 -35 63 -40 1 -5 -22 -54 -49 -108 -53
-102 -110 -235 -110 -255 0 -6 -23 -38 -51 -70 -29 -32 -68 -91 -87 -132 -74
-153 -50 -344 61 -484 16 -21 28 -39 26 -41 -2 -2 -27 -15 -56 -31 -73 -39
-98 -68 -98 -114 0 -47 17 -68 75 -95 99 -45 435 -29 635 29 55 16 101 24 120
21 28 -6 30 -9 30 -47 0 -34 6 -46 32 -70 54 -48 96 -54 343 -53 282 1 397 20
452 77 20 21 35 25 115 31 179 13 350 79 458 177 29 27 55 46 58 43 3 -3 3
-21 0 -40 -9 -54 26 -45 86 23 94 106 159 273 182 466 7 53 15 97 18 97 3 0
15 -14 26 -30 26 -39 51 -39 59 1 17 88 -5 299 -49 474 -12 50 -21 92 -19 94
2 2 17 -8 34 -23 32 -27 70 -35 70 -15 0 50 -111 371 -166 482 -19 37 -31 67
-27 67 5 0 30 -16 57 -35 27 -19 56 -35 64 -35 57 0 -126 402 -263 579 -66 85
-54 92 49 27 62 -39 96 -48 96 -27 0 15 -49 128 -81 187 -60 112 -182 286
-257 365 -41 44 -73 81 -71 83 2 2 42 -4 89 -14 47 -10 89 -14 94 -9 13 12
-16 52 -93 127 -80 80 -187 151 -281 188 -38 15 -67 30 -65 35 3 4 30 13 59
20 73 16 85 24 66 43 -33 31 -114 49 -248 54 -129 4 -132 5 -116 23 9 10 37
30 61 45 29 17 43 31 41 42 -3 14 -19 17 -98 20 -112 3 -208 -15 -298 -58 -34
-16 -62 -25 -62 -19 0 5 11 36 25 69 34 80 33 84 -15 77 -64 -8 -179 -69 -241
-125 -58 -53 -69 -60 -69 -41 0 17 -78 126 -106 148 -28 22 -37 25 -47 14z
m-276 -500 c16 -10 29 -20 29 -24 0 -4 -22 -20 -49 -36 -27 -15 -73 -50 -101
-77 -57 -54 -68 -52 -77 10 -12 96 113 177 198 127z m680 -21 c-20 -38 -29
-100 -17 -117 9 -13 17 -14 39 -6 38 15 47 14 47 -4 0 -26 39 -17 46 10 9 38
96 110 150 125 112 32 214 -42 214 -153 0 -102 -83 -177 -195 -177 -34 0 -45
-4 -45 -15 0 -20 46 -38 82 -32 23 3 32 -3 53 -35 14 -21 24 -38 23 -38 -26 2
-163 53 -172 65 -6 8 -38 20 -71 25 -96 16 -436 39 -750 51 -159 7 -292 14
-294 16 -3 2 31 40 75 84 76 77 183 159 208 159 7 0 24 -17 37 -37 34 -53 51
-52 90 3 l34 46 8 -42 c5 -22 15 -44 23 -47 8 -3 40 23 83 68 l70 74 1 -62 c0
-77 10 -80 88 -27 57 38 173 96 180 90 2 -3 -1 -13 -7 -24z m326 -553 c65 -23
129 -47 143 -54 15 -8 53 -57 88 -113 82 -132 82 -134 40 -122 -45 14 -98 12
-98 -2 0 -6 18 -34 39 -62 71 -93 165 -261 234 -417 l25 -57 -64 29 c-70 32
-94 36 -94 15 0 -7 18 -51 39 -97 21 -46 59 -142 84 -214 68 -196 68 -183 4
-140 -79 53 -96 37 -53 -51 37 -77 101 -259 131 -369 14 -55 29 -109 32 -120
3 -14 -11 -5 -44 28 -67 65 -101 62 -81 -8 15 -53 11 -237 -8 -311 -21 -86
-38 -125 -78 -188 -43 -67 -103 -127 -170 -172 -44 -29 -56 -42 -58 -67 -2
-18 -13 -37 -28 -48 -41 -31 -221 -53 -425 -54 -247 0 -311 20 -303 97 2 27
12 39 51 65 56 37 151 63 169 45 14 -14 58 -16 58 -2 0 5 -18 19 -40 30 -74
38 -139 166 -147 290 -9 132 50 303 131 379 26 24 26 41 2 41 -24 0 -96 -83
-127 -145 -83 -167 -79 -357 11 -498 16 -26 30 -49 30 -52 0 -2 -14 -6 -31
-10 -32 -7 -91 -38 -119 -61 -13 -11 -29 -10 -88 2 -290 60 -508 242 -573 479
-18 67 -21 97 -16 190 6 143 29 211 157 470 107 215 140 311 161 467 l12 97
41 3 c74 5 51 29 -59 60 -180 52 -309 130 -395 239 -22 28 -40 54 -40 57 1 4
23 17 49 30 54 25 87 76 77 116 -5 22 -4 23 74 18 152 -9 280 34 346 115 l38
47 13 -64 c30 -147 139 -247 295 -269 210 -29 366 96 409 327 8 42 18 72 26
72 6 0 65 -19 130 -41z m-1303 -746 c24 -98 63 -132 169 -148 26 -4 47 -12 47
-17 0 -12 -59 -187 -72 -210 -8 -17 -12 -17 -45 -3 -20 9 -55 28 -78 43 -37
25 -40 29 -31 54 7 21 5 37 -10 68 -21 44 -22 45 -92 29 -82 -19 -152 5 -152
52 0 35 58 51 136 39 37 -6 69 -8 72 -5 3 3 0 20 -6 38 -25 68 -11 127 29 127
12 0 21 -18 33 -67z m-50 -245 c27 -43 -66 -68 -120 -33 -34 22 -30 43 9 48
60 8 100 2 111 -15z m-4 -99 c0 -17 -51 -22 -67 -7 -13 14 -10 15 26 15 23 0
41 -4 41 -8z m-34 -686 c2 -199 72 -352 221 -486 56 -51 186 -128 263 -157
l63 -24 -63 -17 c-156 -45 -476 -52 -556 -13 -80 39 -48 111 66 149 49 16 53
16 100 -4 27 -12 61 -21 76 -21 23 0 25 2 13 16 -7 8 -35 27 -62 40 -171 87
-256 301 -193 483 11 34 63 131 69 131 1 0 3 -44 3 -97z"/>
<path d="M1545 3401 c-3 -5 5 -17 17 -26 l23 -16 -30 -25 c-44 -37 -90 -53
-167 -61 -38 -3 -71 -10 -75 -16 -11 -18 23 -28 84 -23 73 6 124 26 177 68
l39 32 15 -22 c18 -28 42 -28 42 -1 0 46 -105 122 -125 90z"/>
<path d="M1774 3090 c-31 -12 -54 -49 -54 -87 0 -38 0 -38 -66 -18 -65 20
-107 19 -132 -2 -52 -44 -28 -108 52 -138 39 -15 45 -21 48 -52 2 -19 0 -36
-4 -39 -11 -7 -10 -52 2 -75 15 -28 83 -59 129 -59 22 0 66 10 97 21 52 20 63
20 130 10 105 -17 242 13 283 62 23 28 -11 31 -61 6 -53 -27 -164 -36 -247
-20 -57 11 -63 10 -110 -14 -63 -32 -128 -33 -165 -4 -33 26 -33 38 -1 31 31
-5 32 10 5 45 -11 14 -20 34 -20 44 0 12 7 19 20 19 36 0 22 27 -17 35 -51 9
-120 42 -127 62 -9 22 12 43 43 43 14 0 51 -7 81 -15 30 -8 66 -15 79 -15 21
0 23 3 17 31 -8 41 17 99 42 99 27 0 40 -19 48 -68 9 -57 40 -76 125 -77 57 0
70 4 102 28 38 29 71 79 60 91 -13 13 -29 5 -46 -24 -23 -39 -65 -60 -119 -60
-56 0 -88 22 -88 60 0 53 -60 98 -106 80z"/>
</g>
</svg>
